<mxfile host="app.diagrams.net" modified="2022-09-14T06:52:07.339Z" agent="5.0 (Windows NT 10.0; Win64; x64) AppleWebKit/537.36 (KHTML, like Gecko) Chrome/105.0.0.0 Safari/537.36" etag="dPeekdgCgMk5PScAFMU8" version="20.3.0" type="github">
  <diagram id="prtHgNgQTEPvFCAcTncT" name="Page-1">
    <mxGraphModel dx="3020" dy="1853" grid="1" gridSize="10" guides="1" tooltips="1" connect="1" arrows="1" fold="1" page="1" pageScale="1" pageWidth="827" pageHeight="1169" math="0" shadow="0">
      <root>
        <mxCell id="0" />
        <mxCell id="1" parent="0" />
        <mxCell id="dNxyNK7c78bLwvsdeMH5-11" value="ファイル管理(Assets)" style="swimlane;html=1;startSize=20;horizontal=1;containerType=tree;glass=0;" parent="1" vertex="1">
          <mxGeometry x="40" y="80" width="2310" height="1570" as="geometry" />
        </mxCell>
        <mxCell id="bcszKCKNUlgbo5UYxURi-2" value="Setting" style="rounded=0;whiteSpace=wrap;html=1;" vertex="1" parent="dNxyNK7c78bLwvsdeMH5-11">
          <mxGeometry x="150" y="140" width="60" height="60" as="geometry" />
        </mxCell>
        <mxCell id="bcszKCKNUlgbo5UYxURi-9" value="Plugin" style="rounded=0;whiteSpace=wrap;html=1;" vertex="1" parent="dNxyNK7c78bLwvsdeMH5-11">
          <mxGeometry x="10" y="140" width="60" height="60" as="geometry" />
        </mxCell>
        <mxCell id="bcszKCKNUlgbo5UYxURi-11" value="Preset" style="rounded=0;whiteSpace=wrap;html=1;" vertex="1" parent="dNxyNK7c78bLwvsdeMH5-11">
          <mxGeometry x="80" y="140" width="60" height="60" as="geometry" />
        </mxCell>
        <mxCell id="bcszKCKNUlgbo5UYxURi-22" value="Scripts" style="swimlane;html=1;startSize=20;horizontal=1;containerType=tree;glass=0;" vertex="1" parent="dNxyNK7c78bLwvsdeMH5-11">
          <mxGeometry x="760" y="240" width="970" height="410" as="geometry">
            <mxRectangle x="760" y="240" width="70" height="30" as="alternateBounds" />
          </mxGeometry>
        </mxCell>
        <mxCell id="bcszKCKNUlgbo5UYxURi-32" value="System" style="rounded=0;whiteSpace=wrap;html=1;" vertex="1" parent="bcszKCKNUlgbo5UYxURi-22">
          <mxGeometry x="690" y="50" width="120" height="60" as="geometry" />
        </mxCell>
        <mxCell id="bcszKCKNUlgbo5UYxURi-37" value="Utility" style="rounded=0;whiteSpace=wrap;html=1;" vertex="1" parent="bcszKCKNUlgbo5UYxURi-22">
          <mxGeometry x="820" y="50" width="120" height="60" as="geometry" />
        </mxCell>
        <mxCell id="bcszKCKNUlgbo5UYxURi-38" value="MapGimmick" style="rounded=0;whiteSpace=wrap;html=1;" vertex="1" parent="bcszKCKNUlgbo5UYxURi-22">
          <mxGeometry x="780" y="200" width="120" height="60" as="geometry" />
        </mxCell>
        <mxCell id="bcszKCKNUlgbo5UYxURi-59" value="Player" style="swimlane;" vertex="1" parent="bcszKCKNUlgbo5UYxURi-22">
          <mxGeometry x="10" y="30" width="240" height="370" as="geometry">
            <mxRectangle x="10" y="30" width="80" height="30" as="alternateBounds" />
          </mxGeometry>
        </mxCell>
        <mxCell id="bcszKCKNUlgbo5UYxURi-61" value="Action" style="swimlane;" vertex="1" parent="bcszKCKNUlgbo5UYxURi-59">
          <mxGeometry x="10" y="30" width="120" height="320" as="geometry" />
        </mxCell>
        <mxCell id="bcszKCKNUlgbo5UYxURi-63" value="Move.sc" style="shape=note;whiteSpace=wrap;html=1;backgroundOutline=1;darkOpacity=0.05;" vertex="1" parent="bcszKCKNUlgbo5UYxURi-61">
          <mxGeometry x="10" y="30" width="80" height="80" as="geometry" />
        </mxCell>
        <mxCell id="bcszKCKNUlgbo5UYxURi-64" value="Jump.sc" style="shape=note;whiteSpace=wrap;html=1;backgroundOutline=1;darkOpacity=0.05;" vertex="1" parent="bcszKCKNUlgbo5UYxURi-61">
          <mxGeometry x="10" y="120" width="80" height="80" as="geometry" />
        </mxCell>
        <mxCell id="bcszKCKNUlgbo5UYxURi-65" value="Attack.sc" style="shape=note;whiteSpace=wrap;html=1;backgroundOutline=1;darkOpacity=0.05;" vertex="1" parent="bcszKCKNUlgbo5UYxURi-61">
          <mxGeometry x="10" y="210" width="80" height="80" as="geometry" />
        </mxCell>
        <mxCell id="bcszKCKNUlgbo5UYxURi-52" value="Controll.sc" style="shape=note;whiteSpace=wrap;html=1;backgroundOutline=1;darkOpacity=0.05;" vertex="1" parent="bcszKCKNUlgbo5UYxURi-59">
          <mxGeometry x="150" y="30" width="80" height="80" as="geometry" />
        </mxCell>
        <mxCell id="bcszKCKNUlgbo5UYxURi-62" value="Data.sc" style="shape=note;whiteSpace=wrap;html=1;backgroundOutline=1;darkOpacity=0.05;" vertex="1" parent="bcszKCKNUlgbo5UYxURi-59">
          <mxGeometry x="150" y="120" width="80" height="80" as="geometry" />
        </mxCell>
        <mxCell id="bcszKCKNUlgbo5UYxURi-66" value="Enemy" style="swimlane;" vertex="1" parent="bcszKCKNUlgbo5UYxURi-22">
          <mxGeometry x="260" y="30" width="400" height="370" as="geometry">
            <mxRectangle x="260" y="30" width="80" height="30" as="alternateBounds" />
          </mxGeometry>
        </mxCell>
        <mxCell id="bcszKCKNUlgbo5UYxURi-79" value="SmallEnemy" style="swimlane;" vertex="1" parent="bcszKCKNUlgbo5UYxURi-66">
          <mxGeometry x="11" y="30" width="369" height="100" as="geometry" />
        </mxCell>
        <mxCell id="bcszKCKNUlgbo5UYxURi-118" value="MediumEnemy" style="swimlane;" vertex="1" parent="bcszKCKNUlgbo5UYxURi-66">
          <mxGeometry x="11" y="140" width="369" height="100" as="geometry" />
        </mxCell>
        <mxCell id="bcszKCKNUlgbo5UYxURi-119" value="BossEnemy" style="swimlane;" vertex="1" parent="bcszKCKNUlgbo5UYxURi-66">
          <mxGeometry x="11" y="250" width="369" height="100" as="geometry" />
        </mxCell>
        <mxCell id="bcszKCKNUlgbo5UYxURi-120" value="Scenes" style="swimlane;" vertex="1" parent="dNxyNK7c78bLwvsdeMH5-11">
          <mxGeometry x="14" y="240" width="720" height="410" as="geometry" />
        </mxCell>
        <mxCell id="bcszKCKNUlgbo5UYxURi-121" value="Main" style="swimlane;" vertex="1" parent="bcszKCKNUlgbo5UYxURi-120">
          <mxGeometry x="10" y="40" width="410" height="330" as="geometry" />
        </mxCell>
        <mxCell id="bcszKCKNUlgbo5UYxURi-124" value="Map" style="swimlane;" vertex="1" parent="bcszKCKNUlgbo5UYxURi-121">
          <mxGeometry x="10" y="30" width="210" height="290" as="geometry" />
        </mxCell>
        <mxCell id="bcszKCKNUlgbo5UYxURi-134" value="Map1_1&lt;br&gt;.scene" style="shape=note;whiteSpace=wrap;html=1;backgroundOutline=1;darkOpacity=0.05;" vertex="1" parent="bcszKCKNUlgbo5UYxURi-124">
          <mxGeometry x="10" y="30" width="80" height="100" as="geometry" />
        </mxCell>
        <mxCell id="bcszKCKNUlgbo5UYxURi-135" value="Map1_2&lt;br&gt;.scene" style="shape=note;whiteSpace=wrap;html=1;backgroundOutline=1;darkOpacity=0.05;" vertex="1" parent="bcszKCKNUlgbo5UYxURi-124">
          <mxGeometry x="100" y="30" width="80" height="100" as="geometry" />
        </mxCell>
        <mxCell id="bcszKCKNUlgbo5UYxURi-125" value="Title.scene" style="shape=note;whiteSpace=wrap;html=1;backgroundOutline=1;darkOpacity=0.05;" vertex="1" parent="bcszKCKNUlgbo5UYxURi-121">
          <mxGeometry x="230" y="40" width="80" height="100" as="geometry" />
        </mxCell>
        <mxCell id="bcszKCKNUlgbo5UYxURi-126" value="StageSelect&lt;br&gt;.Scene" style="shape=note;whiteSpace=wrap;html=1;backgroundOutline=1;darkOpacity=0.05;" vertex="1" parent="bcszKCKNUlgbo5UYxURi-121">
          <mxGeometry x="320" y="40" width="80" height="100" as="geometry" />
        </mxCell>
        <mxCell id="bcszKCKNUlgbo5UYxURi-122" value="Test" style="swimlane;" vertex="1" parent="bcszKCKNUlgbo5UYxURi-120">
          <mxGeometry x="431" y="40" width="269" height="340" as="geometry" />
        </mxCell>
        <mxCell id="bcszKCKNUlgbo5UYxURi-136" value="Onoda" style="swimlane;" vertex="1" parent="bcszKCKNUlgbo5UYxURi-122">
          <mxGeometry x="10" y="30" width="120" height="140" as="geometry" />
        </mxCell>
        <mxCell id="bcszKCKNUlgbo5UYxURi-148" value="Test&lt;br&gt;.Scene" style="shape=note;whiteSpace=wrap;html=1;backgroundOutline=1;darkOpacity=0.05;" vertex="1" parent="bcszKCKNUlgbo5UYxURi-136">
          <mxGeometry x="9" y="30" width="70" height="90" as="geometry" />
        </mxCell>
        <mxCell id="bcszKCKNUlgbo5UYxURi-146" value="Sakurai" style="swimlane;" vertex="1" parent="bcszKCKNUlgbo5UYxURi-122">
          <mxGeometry x="140" y="30" width="120" height="140" as="geometry" />
        </mxCell>
        <mxCell id="bcszKCKNUlgbo5UYxURi-149" value="Test&lt;br&gt;.Scene" style="shape=note;whiteSpace=wrap;html=1;backgroundOutline=1;darkOpacity=0.05;" vertex="1" parent="bcszKCKNUlgbo5UYxURi-146">
          <mxGeometry x="9" y="30" width="70" height="90" as="geometry" />
        </mxCell>
        <mxCell id="bcszKCKNUlgbo5UYxURi-147" value="Watanabe" style="swimlane;" vertex="1" parent="bcszKCKNUlgbo5UYxURi-122">
          <mxGeometry x="10" y="180" width="120" height="150" as="geometry" />
        </mxCell>
        <mxCell id="bcszKCKNUlgbo5UYxURi-150" value="Test&lt;br&gt;.Scene" style="shape=note;whiteSpace=wrap;html=1;backgroundOutline=1;darkOpacity=0.05;" vertex="1" parent="bcszKCKNUlgbo5UYxURi-147">
          <mxGeometry x="9" y="30" width="70" height="90" as="geometry" />
        </mxCell>
        <mxCell id="bcszKCKNUlgbo5UYxURi-151" value="Resource" style="swimlane;" vertex="1" parent="dNxyNK7c78bLwvsdeMH5-11">
          <mxGeometry x="14" y="670" width="726" height="870" as="geometry" />
        </mxCell>
        <mxCell id="bcszKCKNUlgbo5UYxURi-153" value="Materials" style="swimlane;" vertex="1" parent="bcszKCKNUlgbo5UYxURi-151">
          <mxGeometry x="16" y="40" width="264" height="820" as="geometry" />
        </mxCell>
        <mxCell id="bcszKCKNUlgbo5UYxURi-156" value="Stage" style="swimlane;" vertex="1" parent="bcszKCKNUlgbo5UYxURi-153">
          <mxGeometry x="14" y="40" width="240" height="150" as="geometry" />
        </mxCell>
        <mxCell id="bcszKCKNUlgbo5UYxURi-157" value="block1&lt;br&gt;.mat" style="shape=note;whiteSpace=wrap;html=1;backgroundOutline=1;darkOpacity=0.05;" vertex="1" parent="bcszKCKNUlgbo5UYxURi-156">
          <mxGeometry x="10" y="40" width="80" height="100" as="geometry" />
        </mxCell>
        <mxCell id="bcszKCKNUlgbo5UYxURi-164" value="Player" style="swimlane;" vertex="1" parent="bcszKCKNUlgbo5UYxURi-153">
          <mxGeometry x="14" y="200" width="240" height="150" as="geometry" />
        </mxCell>
        <mxCell id="bcszKCKNUlgbo5UYxURi-165" value="Skin&lt;br&gt;.mat" style="shape=note;whiteSpace=wrap;html=1;backgroundOutline=1;darkOpacity=0.05;" vertex="1" parent="bcszKCKNUlgbo5UYxURi-164">
          <mxGeometry x="10" y="40" width="80" height="100" as="geometry" />
        </mxCell>
        <mxCell id="bcszKCKNUlgbo5UYxURi-166" value="Enemy" style="swimlane;" vertex="1" parent="bcszKCKNUlgbo5UYxURi-153">
          <mxGeometry x="14" y="360" width="240" height="150" as="geometry" />
        </mxCell>
        <mxCell id="bcszKCKNUlgbo5UYxURi-167" value="Skin&lt;br&gt;.mat" style="shape=note;whiteSpace=wrap;html=1;backgroundOutline=1;darkOpacity=0.05;" vertex="1" parent="bcszKCKNUlgbo5UYxURi-166">
          <mxGeometry x="10" y="40" width="80" height="100" as="geometry" />
        </mxCell>
        <mxCell id="bcszKCKNUlgbo5UYxURi-168" value="Effect" style="swimlane;" vertex="1" parent="bcszKCKNUlgbo5UYxURi-153">
          <mxGeometry x="12" y="520" width="240" height="150" as="geometry" />
        </mxCell>
        <mxCell id="bcszKCKNUlgbo5UYxURi-169" value="Barn&lt;br&gt;.mat" style="shape=note;whiteSpace=wrap;html=1;backgroundOutline=1;darkOpacity=0.05;" vertex="1" parent="bcszKCKNUlgbo5UYxURi-168">
          <mxGeometry x="10" y="40" width="80" height="100" as="geometry" />
        </mxCell>
        <mxCell id="bcszKCKNUlgbo5UYxURi-154" value="Textures" style="swimlane;" vertex="1" parent="bcszKCKNUlgbo5UYxURi-151">
          <mxGeometry x="296" y="40" width="342" height="820" as="geometry" />
        </mxCell>
        <mxCell id="bcszKCKNUlgbo5UYxURi-170" value="Material" style="swimlane;" vertex="1" parent="bcszKCKNUlgbo5UYxURi-154">
          <mxGeometry x="10" y="40" width="280" height="190" as="geometry" />
        </mxCell>
        <mxCell id="bcszKCKNUlgbo5UYxURi-174" value="Stage" style="swimlane;" vertex="1" parent="bcszKCKNUlgbo5UYxURi-170">
          <mxGeometry x="10" y="40" width="126" height="140" as="geometry" />
        </mxCell>
        <mxCell id="bcszKCKNUlgbo5UYxURi-175" value="block1&lt;br&gt;.png" style="shape=note;whiteSpace=wrap;html=1;backgroundOutline=1;darkOpacity=0.05;direction=east;" vertex="1" parent="bcszKCKNUlgbo5UYxURi-174">
          <mxGeometry x="14" y="30" width="60" height="60" as="geometry" />
        </mxCell>
        <mxCell id="bcszKCKNUlgbo5UYxURi-176" value="Player" style="swimlane;" vertex="1" parent="bcszKCKNUlgbo5UYxURi-170">
          <mxGeometry x="144" y="40" width="126" height="140" as="geometry" />
        </mxCell>
        <mxCell id="bcszKCKNUlgbo5UYxURi-177" value="Skin&lt;br&gt;.png" style="shape=note;whiteSpace=wrap;html=1;backgroundOutline=1;darkOpacity=0.05;direction=east;" vertex="1" parent="bcszKCKNUlgbo5UYxURi-176">
          <mxGeometry x="14" y="30" width="60" height="60" as="geometry" />
        </mxCell>
        <mxCell id="bcszKCKNUlgbo5UYxURi-172" value="Sprite" style="swimlane;" vertex="1" parent="bcszKCKNUlgbo5UYxURi-154">
          <mxGeometry x="12" y="240" width="330" height="580" as="geometry" />
        </mxCell>
        <mxCell id="bcszKCKNUlgbo5UYxURi-233" value="OptionUI" style="swimlane;fontSize=12;" vertex="1" parent="bcszKCKNUlgbo5UYxURi-172">
          <mxGeometry x="12" y="30" width="198" height="140" as="geometry" />
        </mxCell>
        <mxCell id="bcszKCKNUlgbo5UYxURi-234" value="TitleUI" style="swimlane;fontSize=12;" vertex="1" parent="bcszKCKNUlgbo5UYxURi-172">
          <mxGeometry x="12" y="180" width="225" height="160" as="geometry" />
        </mxCell>
        <mxCell id="bcszKCKNUlgbo5UYxURi-235" value="Effect" style="swimlane;fontSize=12;" vertex="1" parent="bcszKCKNUlgbo5UYxURi-172">
          <mxGeometry x="14" y="360" width="296" height="150" as="geometry" />
        </mxCell>
        <mxCell id="bcszKCKNUlgbo5UYxURi-152" value="Prefabs" style="swimlane;" vertex="1" parent="dNxyNK7c78bLwvsdeMH5-11">
          <mxGeometry x="760" y="670" width="970" height="440" as="geometry" />
        </mxCell>
        <mxCell id="bcszKCKNUlgbo5UYxURi-178" value="&lt;font style=&quot;font-size: 29px;&quot;&gt;データの行方が&lt;br&gt;わからなくなるので&lt;br&gt;できるだけ&lt;br&gt;わかりやすく配置しましょう&lt;/font&gt;" style="rounded=1;whiteSpace=wrap;html=1;" vertex="1" parent="dNxyNK7c78bLwvsdeMH5-11">
          <mxGeometry x="1820" y="250" width="440" height="1280" as="geometry" />
        </mxCell>
        <mxCell id="bcszKCKNUlgbo5UYxURi-236" value="&lt;font style=&quot;font-size: 24px;&quot;&gt;ScriptとPrefabはすごい勢いで増えるので&lt;br&gt;おいおい決定する&lt;/font&gt;" style="shape=callout;whiteSpace=wrap;html=1;perimeter=calloutPerimeter;fontSize=12;" vertex="1" parent="dNxyNK7c78bLwvsdeMH5-11">
          <mxGeometry x="810" y="70" width="930" height="160" as="geometry" />
        </mxCell>
      </root>
    </mxGraphModel>
  </diagram>
</mxfile>
